<svg xmlns="http://www.w3.org/2000/svg">
  <!-- https://fonts.google.com/icons -->

  <symbol id="arrow-back" viewBox="0 -960 960 960">
    <path d="m313-440 224 224-57 56-320-320 320-320 57 56-224 224h487v80H313Z"/>
  </symbol>

  <symbol id="add" viewBox="0 -960 960 960">
    <path d="M440-440H200v-80h240v-240h80v240h240v80H520v240h-80v-240Z"/>
  </symbol>

  <symbol id="edit-calendar" viewBox="0 -960 960 960">
    <path d="M200-80q-33 0-56.5-23.5T120-160v-560q0-33 23.5-56.5T200-800h40v-80h80v80h320v-80h80v80h40q33 0 56.5 23.5T840-720v200h-80v-40H200v400h280v80H200Zm0-560h560v-80H200v80Zm0 0v-80 80ZM560-80v-123l221-220q9-9 20-13t22-4q12 0 23 4.5t20 13.5l37 37q8 9 12.5 20t4.5 22q0 11-4 22.5T903-300L683-80H560Zm300-263-37-37 37 37ZM620-140h38l121-122-18-19-19-18-122 121v38Zm141-141-19-18 37 37-18-19Z"/>
  </symbol>

  <symbol id="close" viewBox="0 -960 960 960">
    <path d="m256-200-56-56 224-224-224-224 56-56 224 224 224-224 56 56-224 224 224 224-56 56-224-224-224 224Z"/>
  </symbol>

  <symbol id="check" viewBox="0 -960 960 960">
    <path d="M382-240 154-468l57-57 171 171 367-367 57 57-424 424Z"/>
  </symbol>

  <symbol id="delete" viewBox="0 -960 960 960">
    <path d="M280-120q-33 0-56.5-23.5T200-200v-520h-40v-80h200v-40h240v40h200v80h-40v520q0 33-23.5 56.5T680-120H280Zm400-600H280v520h400v-520ZM360-280h80v-360h-80v360Zm160 0h80v-360h-80v360ZM280-720v520-520Z"/>
  </symbol>

  <symbol id="more" viewBox="0 -960 960 960">
    <path d="M480-160q-33 0-56.5-23.5T400-240q0-33 23.5-56.5T480-320q33 0 56.5 23.5T560-240q0 33-23.5 56.5T480-160Zm0-240q-33 0-56.5-23.5T400-480q0-33 23.5-56.5T480-560q33 0 56.5 23.5T560-480q0 33-23.5 56.5T480-400Zm0-240q-33 0-56.5-23.5T400-720q0-33 23.5-56.5T480-800q33 0 56.5 23.5T560-720q0 33-23.5 56.5T480-640Z"/>
  </symbol>
</svg>